<svg version="1.1" id="Layer_1" xmlns="http://www.w3.org/2000/svg" xmlns:xlink="http://www.w3.org/1999/xlink" x="0px" y="0px"
	 width="100%" viewBox="0 0 496 496" enable-background="new 0 0 496 496" xml:space="preserve">
<path fill="#000000" opacity="1.000000" stroke="none" 
	d="
M200.076233,185.075684 
	C204.783157,182.901657 207.170654,179.369400 208.764740,174.910934 
	C210.786331,169.256790 213.475510,163.869965 217.219818,159.109528 
	C224.116959,150.340652 231.926117,150.676315 238.246445,159.977463 
	C239.177124,161.347061 240.030472,162.769226 241.396606,164.115707 
	C241.797852,156.170105 242.841537,148.182632 239.943176,140.465820 
	C238.357880,136.245026 235.973190,135.585648 232.128754,137.771210 
	C229.786774,139.102631 227.747513,140.779526 226.187103,143.020401 
	C225.270172,144.337158 223.931458,145.107559 222.326431,144.737442 
	C220.345703,144.280716 220.629150,142.573120 220.641220,141.077866 
	C220.827057,118.063972 229.451477,99.073906 247.495438,84.524109 
	C250.125580,82.403282 252.196106,82.258110 254.868820,84.716095 
	C271.157135,99.695793 278.933868,118.627937 281.148132,140.235535 
	C281.323334,141.945557 280.704132,143.174408 279.237091,143.951233 
	C277.704468,144.762833 276.401184,144.408295 275.244049,143.093872 
	C273.158966,140.725372 270.983246,137.513107 267.523712,138.608994 
	C263.762207,139.800552 264.204620,144.090698 263.757019,147.184906 
	C262.884308,153.217300 263.189453,159.318817 263.723602,166.740997 
	C265.846100,163.231567 267.081116,160.898895 268.585083,158.754883 
	C274.096100,150.898514 281.124237,150.237671 287.829559,157.127472 
	C293.717072,163.176987 297.496521,170.653503 301.054901,178.194443 
	C305.873199,188.405396 320.600403,192.435669 330.126587,186.234665 
	C333.126984,184.281601 332.429626,182.010559 332.010468,179.297729 
	C330.979828,172.627228 335.360870,165.690201 341.405701,163.992340 
	C349.177277,161.809494 356.360229,165.053284 359.248779,172.050232 
	C361.993225,178.698074 359.483765,186.255051 353.275757,189.792633 
	C352.140228,190.439713 350.765381,191.266815 349.592438,191.143188 
	C344.776062,190.635590 341.606689,193.278946 338.157532,196.039841 
	C322.341705,208.699783 307.936554,208.541458 291.910797,195.995758 
	C287.906128,192.860764 284.851440,188.426361 279.383881,187.216888 
	C273.498657,185.915054 270.815704,187.603516 269.331238,193.510254 
	C267.443848,201.020218 269.006439,208.401154 269.698975,215.822052 
	C269.898804,217.963272 270.706879,220.069275 270.745941,222.200409 
	C270.974762,234.684494 279.828186,242.888229 285.732056,252.511612 
	C296.300751,269.738647 302.015015,288.210480 300.277100,308.519470 
	C298.760803,326.238586 291.494507,341.829254 281.428528,356.246765 
	C280.107269,358.139191 278.194000,358.313019 276.117706,358.308502 
	C260.454956,358.274445 244.792084,358.256683 229.129410,358.296356 
	C226.647339,358.302643 224.673294,357.854828 223.202927,355.521240 
	C212.701035,338.853973 205.877945,320.879791 206.016891,301.047913 
	C206.154343,281.431366 212.139313,263.081909 223.660934,247.334869 
	C230.621048,237.822189 232.516556,227.545792 233.585861,216.641205 
	C234.313583,209.220245 235.428406,201.770737 233.710785,194.291336 
	C232.996002,191.178772 232.757065,187.750229 229.246460,186.537109 
	C225.915726,185.386139 223.137314,187.056534 220.618286,189.225342 
	C217.969727,191.505646 215.348282,193.854568 212.485062,195.842331 
	C196.021225,207.272217 180.099777,206.331223 165.136963,192.985199 
	C162.678345,190.792236 160.515121,189.600479 156.879959,189.721527 
	C148.625900,189.996414 142.730698,183.484131 142.902786,175.386139 
	C143.073578,167.348358 148.908615,161.664505 156.988815,161.665039 
	C165.211731,161.665588 171.381119,167.168076 171.220413,175.113266 
	C171.123016,179.927002 170.959991,184.059189 175.772247,187.095642 
	C180.909988,190.337448 186.164536,190.367569 191.574600,188.899582 
	C194.423325,188.126602 197.042511,186.507706 200.076233,185.075684 
z"/>
</svg>